<svg width="19" height="20" viewBox="0 0 19 20" fill="none" xmlns="http://www.w3.org/2000/svg">
    <path
        d="M15.8372 10.7939V16.3355C15.8372 16.7728 15.4828 17.1272 15.0456 17.1272H3.9622C3.52498 17.1272 3.17054 16.7728 3.17054 16.3355V10.7939H15.8372ZM11.4831 2.08556C13.0133 2.08556 14.2539 3.3261 14.2539 4.85639C14.2539 5.28167 14.1581 5.68458 13.9869 6.04471L16.6289 6.04389C17.0661 6.04389 17.4206 6.39833 17.4206 6.83556V9.21055C17.4206 9.64779 17.0661 10.0022 16.6289 10.0022H2.37887C1.94165 10.0022 1.5872 9.64779 1.5872 9.21055V6.83556C1.5872 6.39833 1.94165 6.04389 2.37887 6.04389L5.02091 6.04471C4.84969 5.68458 4.75387 5.28167 4.75387 4.85639C4.75387 3.3261 5.99442 2.08556 7.5247 2.08556C8.30055 2.08556 9.00189 2.40441 9.50484 2.91822C10.0059 2.40441 10.7072 2.08556 11.4831 2.08556ZM7.5247 3.66889C6.86887 3.66889 6.3372 4.20055 6.3372 4.85639C6.3372 5.47364 6.80816 5.98091 7.41034 6.03845L7.5247 6.04389H8.71222V4.85639C8.71222 4.23913 8.24126 3.73187 7.63907 3.67432L7.5247 3.66889ZM11.4831 3.66889L11.3687 3.67432C10.8041 3.72827 10.3549 4.17748 10.3009 4.74203L10.2956 4.85639V6.04389H11.4831L11.5974 6.03845C12.1996 5.98091 12.6706 5.47364 12.6706 4.85639C12.6706 4.23913 12.1996 3.73187 11.5974 3.67432L11.4831 3.66889Z"
        fill="#EAE6F5" />
</svg>