<svg width="20" height="18" viewBox="0 0 20 18" fill="none" xmlns="http://www.w3.org/2000/svg">
    <g filter="url(#filter0_ddi_952_3)">
        <path
            d="M3.00786 6.85744C6.94336 5.14284 9.56766 4.01244 10.8807 3.46624C14.6298 1.90694 15.4089 1.63604 15.9166 1.62704C16.0283 1.62514 16.278 1.65274 16.4397 1.78404C16.5763 1.89484 16.6139 2.04454 16.6319 2.14964C16.6499 2.25474 16.6722 2.49404 16.6545 2.68104C16.4513 4.81574 15.5722 9.99604 15.125 12.3869C14.9358 13.3985 14.5632 13.7377 14.2024 13.7709C13.4184 13.8431 12.8231 13.2528 12.0638 12.7551C10.8756 11.9762 10.2044 11.4914 9.05096 10.7313C7.71816 9.85304 8.58216 9.37024 9.34176 8.58134C9.54056 8.37484 12.9948 5.23304 13.0617 4.94804C13.07 4.91234 13.0778 4.77944 12.9988 4.70934C12.9199 4.63914 12.8034 4.66314 12.7194 4.68224C12.6002 4.70924 10.702 5.96384 7.02496 8.44604C6.48616 8.81594 5.99816 8.99624 5.56086 8.98674C5.07886 8.97634 4.15166 8.71424 3.46236 8.49024C2.61696 8.21534 1.94496 8.07004 2.00356 7.60334C2.03396 7.36024 2.36876 7.11164 3.00786 6.85744Z"
            fill="#B19DFF" />
        <mask id="mask0_952_3" style="mask-type:luminance" maskUnits="userSpaceOnUse" x="0" y="-1"
            width="18" height="17">
            <path d="M18 -0.373047H0V15.627H18V-0.373047Z" fill="white" />
            <path
                d="M3.00786 6.85744C6.94336 5.14284 9.56766 4.01244 10.8807 3.46624C14.6298 1.90694 15.4089 1.63604 15.9166 1.62704C16.0283 1.62514 16.278 1.65274 16.4397 1.78404C16.5763 1.89484 16.6139 2.04454 16.6319 2.14964C16.6499 2.25474 16.6722 2.49404 16.6545 2.68104C16.4513 4.81574 15.5722 9.99604 15.125 12.3869C14.9358 13.3985 14.5632 13.7377 14.2024 13.7709C13.4184 13.8431 12.8231 13.2528 12.0638 12.7551C10.8756 11.9762 10.2044 11.4914 9.05096 10.7313C7.71816 9.85304 8.58216 9.37024 9.34176 8.58134C9.54056 8.37484 12.9948 5.23304 13.0617 4.94804C13.07 4.91234 13.0778 4.77944 12.9988 4.70934C12.9199 4.63914 12.8034 4.66314 12.7194 4.68224C12.6002 4.70924 10.702 5.96384 7.02496 8.44604C6.48616 8.81594 5.99816 8.99624 5.56086 8.98674C5.07886 8.97634 4.15166 8.71424 3.46236 8.49024C2.61696 8.21534 1.94496 8.07004 2.00356 7.60334C2.03396 7.36024 2.36876 7.11164 3.00786 6.85744Z"
                fill="black" />
        </mask>
        <g mask="url(#mask0_952_3)">
            <path
                d="M3.00795 6.85749L3.47995 8.04449L3.49915 8.03679L3.51815 8.02859L3.00795 6.85749ZM13.0618 4.94809L14.3054 5.23959L14.3057 5.23859L13.0618 4.94809ZM7.02505 8.44609L6.31025 7.38729L6.30205 7.39299L7.02505 8.44609ZM3.51815 8.02859C7.45535 6.31319 10.0699 5.18709 11.3714 4.64579L10.3903 2.28689C9.06565 2.83789 6.43155 3.97259 2.49775 5.68639L3.51815 8.02859ZM11.3714 4.64579C13.2506 3.86419 14.3555 3.41809 15.05 3.16609C15.7666 2.90609 15.9149 2.90479 15.9392 2.90429L15.8942 0.349891C15.4108 0.358491 14.9157 0.49709 14.1786 0.76459C13.4194 1.03999 12.2602 1.50919 10.3903 2.28689L11.3714 4.64579ZM15.9392 2.90429C15.9105 2.90479 15.8948 2.90329 15.8895 2.90279C15.8829 2.90209 15.8745 2.90089 15.8627 2.89809C15.8516 2.89539 15.8269 2.88879 15.7922 2.87359C15.7582 2.85869 15.7007 2.82939 15.6348 2.77589L17.2449 0.792291C16.961 0.561891 16.6558 0.460892 16.4563 0.413192C16.2487 0.363592 16.0507 0.347191 15.8942 0.349891L15.9392 2.90429ZM15.6348 2.77589C15.3984 2.58409 15.3686 2.33979 15.3729 2.36539L17.891 1.93399C17.8594 1.74949 17.7544 1.20569 17.2449 0.792291L15.6348 2.77589ZM15.3729 2.36539C15.3719 2.35929 15.3733 2.36689 15.3757 2.38839C15.3778 2.40799 15.3799 2.43249 15.3815 2.45899C15.383 2.48569 15.3837 2.51029 15.3837 2.53089C15.3836 2.55249 15.3828 2.56189 15.3829 2.56029L17.9262 2.80219C17.9578 2.47019 17.9216 2.11229 17.891 1.93399L15.3729 2.36539ZM15.3829 2.56029C15.1859 4.62989 14.3175 9.75679 13.8695 12.1521L16.3807 12.6218C16.8271 10.2355 17.7168 5.00189 17.9262 2.80219L15.3829 2.56029ZM13.8695 12.1521C13.8333 12.3453 13.7934 12.4789 13.7597 12.5666C13.7257 12.6549 13.703 12.6838 13.707 12.6784C13.7128 12.6708 13.748 12.6271 13.8232 12.5828C13.901 12.5369 13.9924 12.5076 14.0854 12.499L14.3196 15.043C15.5957 14.9255 16.1687 13.7553 16.3807 12.6218L13.8695 12.1521ZM14.0854 12.499C14.0702 12.5004 14.0011 12.5106 13.771 12.3754C13.6522 12.3056 13.5216 12.216 13.3479 12.0927C13.1867 11.9782 12.9798 11.8282 12.7642 11.6869L11.3636 13.8235C11.5276 13.931 11.6798 14.0415 11.8684 14.1754C12.0444 14.3005 12.2539 14.4472 12.4769 14.5782C12.9302 14.8445 13.5507 15.1138 14.3196 15.043L14.0854 12.499ZM12.7642 11.6869C12.1801 11.304 11.723 10.9934 11.2635 10.6804C10.8038 10.3674 10.34 10.0509 9.75395 9.66479L8.34826 11.798C8.91566 12.172 9.36405 12.4779 9.82545 12.7921C10.2869 13.1063 10.7596 13.4276 11.3636 13.8235L12.7642 11.6869ZM9.75395 9.66479C9.63315 9.58519 9.56745 9.52959 9.53645 9.49969C9.50505 9.46949 9.52755 9.48309 9.55975 9.54459C9.59615 9.61449 9.63265 9.72289 9.63435 9.85659C9.63605 9.98639 9.60435 10.0842 9.58165 10.136C9.56145 10.1819 9.54815 10.1927 9.57105 10.1634C9.59335 10.1349 9.63225 10.0906 9.69965 10.022C9.76815 9.95229 9.84355 9.87999 9.94355 9.78349C10.0379 9.69249 10.1494 9.58449 10.2621 9.46739L8.42175 7.69539C8.34465 7.77559 8.26285 7.85509 8.16965 7.94499C8.08225 8.02929 7.97595 8.13109 7.87745 8.23129C7.70015 8.41169 7.41515 8.71489 7.24205 9.10979C7.03045 9.59199 7.00325 10.1683 7.29505 10.7271C7.53865 11.1936 7.94836 11.5345 8.34826 11.798L9.75395 9.66479ZM10.2621 9.46739C10.2573 9.47229 10.3005 9.43049 10.4285 9.31069C10.5404 9.20609 10.6902 9.06699 10.8674 8.90219C11.2202 8.57419 11.676 8.15009 12.1284 7.72289C12.5789 7.29739 13.0349 6.86049 13.3856 6.50819C13.5592 6.33379 13.7198 6.16729 13.8445 6.02739C13.9054 5.95919 13.973 5.88009 14.0333 5.79969C14.0631 5.75989 14.1038 5.70309 14.144 5.63539C14.1715 5.58899 14.2579 5.44229 14.3054 5.23959L11.8181 4.65649C11.8614 4.47169 11.937 4.34829 11.9476 4.33049C11.9708 4.29149 11.9882 4.26849 11.989 4.26749C11.9913 4.26439 11.9777 4.28229 11.9373 4.32759C11.8595 4.41489 11.7377 4.54229 11.575 4.70579C11.2531 5.02919 10.8205 5.44409 10.3743 5.86549C9.52785 6.66479 8.54765 7.56459 8.42175 7.69539L10.2621 9.46739ZM14.3057 5.23859C14.3484 5.05549 14.3558 4.85089 14.3267 4.65439C14.2977 4.45899 14.2018 4.06939 13.8473 3.75439L12.1501 5.66389C11.8746 5.41909 11.8147 5.13149 11.7995 5.02889C11.7898 4.96379 11.7883 4.90689 11.79 4.85969C11.7914 4.82169 11.7961 4.75069 11.8179 4.65759L14.3057 5.23859ZM13.8473 3.75439C13.4977 3.44359 13.1053 3.38679 12.8711 3.38499C12.6549 3.38329 12.4708 3.42889 12.4367 3.43659L13.0022 5.92799C13.0521 5.91659 12.9683 5.94059 12.8512 5.93969C12.716 5.93869 12.4207 5.90459 12.1501 5.66389L13.8473 3.75439ZM12.4367 3.43659C12.3017 3.46719 12.1994 3.51429 12.1785 3.52369C12.1377 3.54209 12.1029 3.55999 12.0795 3.57239C12.0316 3.59759 11.9832 3.62559 11.9405 3.65079C11.8528 3.70279 11.7414 3.77209 11.6115 3.85449C11.3495 4.02099 10.9785 4.26299 10.5021 4.57789C9.54765 5.20869 8.14965 6.14559 6.31025 7.38729L7.73975 9.50479C9.57735 8.26429 10.9671 7.33289 11.9108 6.70919C12.3835 6.39669 12.7392 6.16479 12.9815 6.01089C13.1039 5.93319 13.189 5.88069 13.2422 5.84909C13.2701 5.83259 13.2782 5.82839 13.2731 5.83109C13.271 5.83219 13.2541 5.84119 13.2277 5.85309C13.2211 5.85609 13.1297 5.89909 13.0022 5.92799L12.4367 3.43659ZM6.30205 7.39299C5.88035 7.68249 5.65555 7.71119 5.58855 7.70979L5.53335 10.2639C6.34085 10.2814 7.09205 9.94949 7.74805 9.49919L6.30205 7.39299ZM5.58855 7.70979C5.50255 7.70789 5.27085 7.67259 4.90015 7.57959C4.55905 7.49409 4.18445 7.38179 3.85725 7.27539L3.06755 9.70509C3.42965 9.82279 3.86335 9.95349 4.27875 10.0577C4.66445 10.1544 5.13725 10.2554 5.53335 10.2639L5.58855 7.70979ZM3.85725 7.27539C3.74465 7.23879 3.63575 7.20459 3.53785 7.17379C3.43765 7.14229 3.35015 7.11469 3.26895 7.08799C3.09885 7.03199 3.00415 6.99489 2.95095 6.96919C2.88585 6.93759 2.97475 6.96609 3.07885 7.09399C3.13885 7.16789 3.20165 7.27189 3.24055 7.40469C3.27975 7.53819 3.28355 7.66249 3.27105 7.76229L0.736153 7.44449C0.676753 7.91839 0.816353 8.36129 1.09715 8.70639C1.33715 9.00139 1.63595 9.17089 1.83715 9.26839C2.20835 9.44819 2.74405 9.59989 3.06755 9.70509L3.85725 7.27539ZM3.27105 7.76229C3.24525 7.96819 3.16215 8.11009 3.10895 8.18179C3.05865 8.24949 3.02225 8.27269 3.03915 8.26009C3.05325 8.24959 3.09345 8.22249 3.17165 8.18209C3.24835 8.14249 3.34975 8.09629 3.47995 8.04449L2.53585 5.67059C2.17065 5.81579 1.81115 5.98979 1.51595 6.20909C1.25405 6.40359 0.816853 6.80069 0.736153 7.44449L3.27105 7.76229Z"
                fill="black" fill-opacity="0.07" />
        </g>
    </g>
    <defs>
        <filter id="filter0_ddi_952_3" x="-24.8043" y="-21.1574" width="68.2688" height="65.7591"
            filterUnits="userSpaceOnUse" color-interpolation-filters="sRGB">
            <feFlood flood-opacity="0" result="BackgroundImageFix" />
            <feColorMatrix in="SourceAlpha" type="matrix"
                values="0 0 0 0 0 0 0 0 0 0 0 0 0 0 0 0 0 0 127 0" result="hardAlpha" />
            <feOffset dy="2.55477" />
            <feComposite in2="hardAlpha" operator="out" />
            <feColorMatrix type="matrix" values="0 0 0 0 0 0 0 0 0 0 0 0 0 0 0 0 0 0 0.25 0" />
            <feBlend mode="normal" in2="BackgroundImageFix" result="effect1_dropShadow_952_3" />
            <feColorMatrix in="SourceAlpha" type="matrix"
                values="0 0 0 0 0 0 0 0 0 0 0 0 0 0 0 0 0 0 127 0" result="hardAlpha" />
            <feOffset dy="4.02001" />
            <feGaussianBlur stdDeviation="12.7635" />
            <feComposite in2="hardAlpha" operator="out" />
            <feColorMatrix type="matrix" values="0 0 0 0 0 0 0 0 0 0 0 0 0 0 0 0 0 0 0.14 0" />
            <feBlend mode="normal" in2="effect1_dropShadow_952_3" result="effect2_dropShadow_952_3" />
            <feBlend mode="normal" in="SourceGraphic" in2="effect2_dropShadow_952_3" result="shape" />
            <feColorMatrix in="SourceAlpha" type="matrix"
                values="0 0 0 0 0 0 0 0 0 0 0 0 0 0 0 0 0 0 127 0" result="hardAlpha" />
            <feOffset dy="5.10955" />
            <feGaussianBlur stdDeviation="2.55477" />
            <feComposite in2="hardAlpha" operator="arithmetic" k2="-1" k3="1" />
            <feColorMatrix type="matrix" values="0 0 0 0 0 0 0 0 0 0 0 0 0 0 0 0 0 0 0.1 0" />
            <feBlend mode="normal" in2="shape" result="effect3_innerShadow_952_3" />
        </filter>
    </defs>
</svg>